<svg xmlns="http://www.w3.org/2000/svg" width="1242" height="1656" viewBox="0 0 1242 1656">
  <defs>
    <linearGradient id="bg" x1="0" y1="0" x2="1" y2="1">
      <stop offset="0" stop-color="#080A11"/>
      <stop offset="0.58" stop-color="#11152B"/>
      <stop offset="1" stop-color="#21133B"/>
    </linearGradient>
    <linearGradient id="brand" x1="0" y1="0" x2="1" y2="1">
      <stop stop-color="#536DFE"/>
      <stop offset="1" stop-color="#9B5CF6"/>
    </linearGradient>
    <linearGradient id="panel" x1="0" y1="0" x2="1" y2="1">
      <stop stop-color="#202746"/>
      <stop offset="1" stop-color="#171A2A"/>
    </linearGradient>
    <radialGradient id="glow">
      <stop stop-color="#775CFF" stop-opacity=".54"/>
      <stop offset="1" stop-color="#775CFF" stop-opacity="0"/>
    </radialGradient>
    <filter id="shadow" x="-30%" y="-30%" width="160%" height="160%">
      <feDropShadow dx="0" dy="28" stdDeviation="30" flood-color="#02030A" flood-opacity=".65"/>
    </filter>
  </defs>

  <rect width="1242" height="1656" fill="url(#bg)"/>
  <circle cx="1050" cy="230" r="430" fill="url(#glow)"/>
  <circle cx="120" cy="1420" r="390" fill="url(#glow)" opacity=".5"/>

  <g font-family="PingFang SC, Microsoft YaHei, Noto Sans CJK SC, sans-serif">
    <g transform="translate(72 72)">
      <rect width="300" height="58" rx="29" fill="#1B2140" stroke="#536DFE" stroke-width="2"/>
      <path d="M31 14h19L39 29h13L27 47l8-14H23z" fill="#AEB7FF"/>
      <text x="67" y="39" fill="#DCE1FF" font-size="25" font-weight="700" letter-spacing="1">PROFILE INSIGHT</text>
    </g>

    <g transform="translate(931 72)">
      <rect width="239" height="58" rx="29" fill="url(#brand)"/>
      <text x="119.5" y="39" text-anchor="middle" fill="white" font-size="26" font-weight="700">免费内测</text>
    </g>

    <text x="72" y="250" fill="#AEB7FF" font-size="31" font-weight="600" letter-spacing="5">独立开发 · CHROME 插件</text>
    <text x="72" y="365" fill="#FFFFFF" font-size="86" font-weight="800">我做了个插件</text>
    <text x="72" y="480" fill="#FFFFFF" font-size="86" font-weight="800">快速看懂</text>
    <text x="72" y="595" fill="url(#brand)" font-size="94" font-weight="900">海外客户</text>
    <text x="76" y="666" fill="#A8AEC5" font-size="32">LinkedIn + X 客户公开动态分析</text>

    <g transform="translate(72 744)" filter="url(#shadow)">
      <rect width="1098" height="710" rx="35" fill="#121520" stroke="#343B59" stroke-width="2"/>
      <rect width="1098" height="74" rx="35" fill="#1A1E2C"/>
      <rect y="38" width="1098" height="36" fill="#1A1E2C"/>
      <circle cx="40" cy="37" r="9" fill="#FF7285"/>
      <circle cx="70" cy="37" r="9" fill="#FFC663"/>
      <circle cx="100" cy="37" r="9" fill="#65D6A2"/>
      <rect x="150" y="19" width="610" height="36" rx="18" fill="#10131D"/>
      <text x="176" y="43" fill="#666D84" font-size="18">linkedin.com/in/potential-client</text>

      <g transform="translate(35 110)">
        <circle cx="65" cy="65" r="65" fill="url(#brand)"/>
        <text x="65" y="82" text-anchor="middle" fill="white" font-size="50" font-weight="800">P</text>
        <rect x="160" y="16" width="360" height="26" rx="13" fill="#E7E9F3"/>
        <rect x="160" y="62" width="520" height="19" rx="9.5" fill="#5D6478"/>
        <rect x="160" y="101" width="420" height="19" rx="9.5" fill="#41475A"/>
        <rect x="748" y="31" width="280" height="68" rx="34" fill="url(#brand)"/>
        <text x="888" y="76" text-anchor="middle" fill="white" font-size="25" font-weight="700">⚡ Profile Insight</text>
      </g>

      <line x1="35" y1="270" x2="1063" y2="270" stroke="#2B3040" stroke-width="2"/>

      <g transform="translate(35 305)">
        <rect width="660" height="345" rx="24" fill="#171A25" stroke="#292E3F"/>
        <text x="30" y="48" fill="#8C94AC" font-size="20" font-weight="700" letter-spacing="2">RECENT ACTIVITY</text>
        <rect x="30" y="80" width="590" height="72" rx="15" fill="#202432"/>
        <rect x="50" y="101" width="400" height="15" rx="7" fill="#747C92"/>
        <rect x="50" y="127" width="510" height="12" rx="6" fill="#444B60"/>
        <rect x="30" y="170" width="590" height="72" rx="15" fill="#202432"/>
        <rect x="50" y="191" width="470" height="15" rx="7" fill="#747C92"/>
        <rect x="50" y="217" width="360" height="12" rx="6" fill="#444B60"/>
        <rect x="30" y="260" width="590" height="54" rx="15" fill="#202432"/>
        <rect x="50" y="280" width="430" height="14" rx="7" fill="#596176"/>
      </g>

      <g transform="translate(725 305)">
        <rect width="338" height="345" rx="24" fill="url(#panel)" stroke="#414A73"/>
        <text x="24" y="45" fill="#AEB7FF" font-size="18" font-weight="700" letter-spacing="2">AI INSIGHT</text>
        <text x="24" y="91" fill="#FFFFFF" font-size="25" font-weight="700">客户画像</text>
        <rect x="24" y="112" width="285" height="9" rx="4" fill="#59627B"/>
        <rect x="24" y="134" width="230" height="9" rx="4" fill="#3E465C"/>
        <text x="24" y="186" fill="#FFFFFF" font-size="25" font-weight="700">商业信号</text>
        <rect x="24" y="207" width="88" height="32" rx="16" fill="#173B31"/>
        <text x="68" y="229" text-anchor="middle" fill="#73DAB1" font-size="15">强信号</text>
        <rect x="124" y="207" width="114" height="32" rx="16" fill="#292F55"/>
        <text x="181" y="229" text-anchor="middle" fill="#B5BEFF" font-size="15">合作机会</text>
        <text x="24" y="288" fill="#FFFFFF" font-size="25" font-weight="700">联系时间</text>
        <text x="24" y="322" fill="#AEB7FF" font-size="21">对方 09:00 · 我的 21:00</text>
      </g>
    </g>

    <text x="621" y="1537" text-anchor="middle" fill="#FFFFFF" font-size="29" font-weight="700">客户画像 · 商业信号 · 活跃时间 · 英文话术</text>
    <text x="621" y="1591" text-anchor="middle" fill="#777F98" font-size="22">使用自己的大模型 API · 数据保存在本地浏览器</text>
  </g>
</svg>
